<mxfile host="app.diagrams.net" modified="2024-05-30T12:00:13.724Z" agent="Mozilla/5.0 (Windows NT 10.0; Win64; x64) AppleWebKit/537.36 (KHTML, like Gecko) Chrome/108.0.0.0 Safari/537.36" etag="fJiYM5C97notXCFlPHoq" version="24.4.10" type="github">
  <diagram name="Page-1" id="-1afgymPJwAevVrG3JVa">
    <mxGraphModel dx="1434" dy="764" grid="1" gridSize="10" guides="1" tooltips="1" connect="1" arrows="1" fold="1" page="1" pageScale="1" pageWidth="850" pageHeight="1100" math="0" shadow="0">
      <root>
        <mxCell id="0" />
        <mxCell id="1" parent="0" />
        <mxCell id="Y4E_mOAn1WjE2Oi4PeWz-19" value="" style="edgeStyle=orthogonalEdgeStyle;rounded=0;orthogonalLoop=1;jettySize=auto;html=1;" edge="1" parent="1" source="Y4E_mOAn1WjE2Oi4PeWz-1" target="Y4E_mOAn1WjE2Oi4PeWz-18">
          <mxGeometry relative="1" as="geometry" />
        </mxCell>
        <mxCell id="Y4E_mOAn1WjE2Oi4PeWz-1" value="index" style="rounded=1;whiteSpace=wrap;html=1;" vertex="1" parent="1">
          <mxGeometry x="360" y="100" width="120" height="60" as="geometry" />
        </mxCell>
        <mxCell id="Y4E_mOAn1WjE2Oi4PeWz-21" value="" style="edgeStyle=orthogonalEdgeStyle;rounded=0;orthogonalLoop=1;jettySize=auto;html=1;" edge="1" parent="1" source="Y4E_mOAn1WjE2Oi4PeWz-18" target="Y4E_mOAn1WjE2Oi4PeWz-20">
          <mxGeometry relative="1" as="geometry">
            <Array as="points">
              <mxPoint x="490" y="200" />
              <mxPoint x="490" y="200" />
            </Array>
          </mxGeometry>
        </mxCell>
        <mxCell id="Y4E_mOAn1WjE2Oi4PeWz-23" value="" style="edgeStyle=orthogonalEdgeStyle;rounded=0;orthogonalLoop=1;jettySize=auto;html=1;" edge="1" parent="1" source="Y4E_mOAn1WjE2Oi4PeWz-18" target="Y4E_mOAn1WjE2Oi4PeWz-22">
          <mxGeometry relative="1" as="geometry" />
        </mxCell>
        <mxCell id="Y4E_mOAn1WjE2Oi4PeWz-18" value="" style="shape=waypoint;sketch=0;size=6;pointerEvents=1;points=[];fillColor=default;resizable=0;rotatable=0;perimeter=centerPerimeter;snapToPoint=1;rounded=1;" vertex="1" parent="1">
          <mxGeometry x="410" y="190" width="20" height="20" as="geometry" />
        </mxCell>
        <mxCell id="Y4E_mOAn1WjE2Oi4PeWz-20" value="" style="shape=waypoint;sketch=0;size=6;pointerEvents=1;points=[];fillColor=default;resizable=0;rotatable=0;perimeter=centerPerimeter;snapToPoint=1;rounded=1;" vertex="1" parent="1">
          <mxGeometry x="510" y="190" width="20" height="20" as="geometry" />
        </mxCell>
        <mxCell id="Y4E_mOAn1WjE2Oi4PeWz-26" value="" style="edgeStyle=orthogonalEdgeStyle;rounded=0;orthogonalLoop=1;jettySize=auto;html=1;" edge="1" parent="1" source="Y4E_mOAn1WjE2Oi4PeWz-22" target="Y4E_mOAn1WjE2Oi4PeWz-25">
          <mxGeometry relative="1" as="geometry" />
        </mxCell>
        <mxCell id="Y4E_mOAn1WjE2Oi4PeWz-22" value="" style="shape=waypoint;sketch=0;size=6;pointerEvents=1;points=[];fillColor=default;resizable=0;rotatable=0;perimeter=centerPerimeter;snapToPoint=1;rounded=1;" vertex="1" parent="1">
          <mxGeometry x="310" y="190" width="20" height="20" as="geometry" />
        </mxCell>
        <mxCell id="Y4E_mOAn1WjE2Oi4PeWz-28" value="" style="edgeStyle=orthogonalEdgeStyle;rounded=0;orthogonalLoop=1;jettySize=auto;html=1;" edge="1" parent="1" source="Y4E_mOAn1WjE2Oi4PeWz-25" target="Y4E_mOAn1WjE2Oi4PeWz-27">
          <mxGeometry relative="1" as="geometry" />
        </mxCell>
        <mxCell id="Y4E_mOAn1WjE2Oi4PeWz-25" value="download" style="whiteSpace=wrap;html=1;sketch=0;pointerEvents=1;resizable=0;rounded=1;" vertex="1" parent="1">
          <mxGeometry x="260" y="260" width="120" height="60" as="geometry" />
        </mxCell>
        <mxCell id="Y4E_mOAn1WjE2Oi4PeWz-30" value="" style="edgeStyle=orthogonalEdgeStyle;rounded=0;orthogonalLoop=1;jettySize=auto;html=1;" edge="1" parent="1" source="Y4E_mOAn1WjE2Oi4PeWz-27" target="Y4E_mOAn1WjE2Oi4PeWz-29">
          <mxGeometry relative="1" as="geometry" />
        </mxCell>
        <mxCell id="Y4E_mOAn1WjE2Oi4PeWz-34" value="" style="edgeStyle=orthogonalEdgeStyle;rounded=0;orthogonalLoop=1;jettySize=auto;html=1;" edge="1" parent="1" source="Y4E_mOAn1WjE2Oi4PeWz-27" target="Y4E_mOAn1WjE2Oi4PeWz-33">
          <mxGeometry relative="1" as="geometry" />
        </mxCell>
        <mxCell id="Y4E_mOAn1WjE2Oi4PeWz-27" value="" style="shape=waypoint;sketch=0;size=6;pointerEvents=1;points=[];fillColor=default;resizable=0;rotatable=0;perimeter=centerPerimeter;snapToPoint=1;rounded=1;" vertex="1" parent="1">
          <mxGeometry x="310" y="350" width="20" height="20" as="geometry" />
        </mxCell>
        <mxCell id="Y4E_mOAn1WjE2Oi4PeWz-32" value="" style="edgeStyle=orthogonalEdgeStyle;rounded=0;orthogonalLoop=1;jettySize=auto;html=1;" edge="1" parent="1" source="Y4E_mOAn1WjE2Oi4PeWz-29" target="Y4E_mOAn1WjE2Oi4PeWz-31">
          <mxGeometry relative="1" as="geometry" />
        </mxCell>
        <mxCell id="Y4E_mOAn1WjE2Oi4PeWz-29" value="" style="shape=waypoint;sketch=0;size=6;pointerEvents=1;points=[];fillColor=default;resizable=0;rotatable=0;perimeter=centerPerimeter;snapToPoint=1;rounded=1;" vertex="1" parent="1">
          <mxGeometry x="390" y="350" width="20" height="20" as="geometry" />
        </mxCell>
        <mxCell id="Y4E_mOAn1WjE2Oi4PeWz-31" value="" style="whiteSpace=wrap;html=1;sketch=0;pointerEvents=1;resizable=0;rounded=1;" vertex="1" parent="1">
          <mxGeometry x="340" y="400" width="120" height="60" as="geometry" />
        </mxCell>
        <mxCell id="Y4E_mOAn1WjE2Oi4PeWz-36" value="" style="edgeStyle=orthogonalEdgeStyle;rounded=0;orthogonalLoop=1;jettySize=auto;html=1;" edge="1" parent="1" source="Y4E_mOAn1WjE2Oi4PeWz-33" target="Y4E_mOAn1WjE2Oi4PeWz-35">
          <mxGeometry relative="1" as="geometry" />
        </mxCell>
        <mxCell id="Y4E_mOAn1WjE2Oi4PeWz-33" value="" style="shape=waypoint;sketch=0;size=6;pointerEvents=1;points=[];fillColor=default;resizable=0;rotatable=0;perimeter=centerPerimeter;snapToPoint=1;rounded=1;" vertex="1" parent="1">
          <mxGeometry x="230" y="350" width="20" height="20" as="geometry" />
        </mxCell>
        <mxCell id="Y4E_mOAn1WjE2Oi4PeWz-35" value="" style="whiteSpace=wrap;html=1;sketch=0;pointerEvents=1;resizable=0;rounded=1;" vertex="1" parent="1">
          <mxGeometry x="180" y="400" width="120" height="60" as="geometry" />
        </mxCell>
      </root>
    </mxGraphModel>
  </diagram>
</mxfile>
